<svg xmlns="http://www.w3.org/2000/svg" viewBox="0 0 500 500"><g id="freepik--background-complete--inject-469"><path d="M399.17,475.57c-8.38-11.55-16.06-28.53-15.66-43a80,80,0,0,1,15.66,43" style="fill:#ebebeb"></path><path d="M405.11,457.24c-8.38-11.55-16.06-28.54-15.65-43a80,80,0,0,1,15.65,43" style="fill:#ebebeb"></path><path d="M410.68,437.62c-7-12.57-12.59-30.42-10.47-44.63a80.45,80.45,0,0,1,10.47,44.63" style="fill:#ebebeb"></path><path d="M413.75,421.83c-2.19-14.33-1.29-33,5.62-45.12a78.7,78.7,0,0,1-5.62,45.12" style="fill:#ebebeb"></path><path d="M412.38,429.4c8.66-11.83,22.79-24.6,36.89-28.53a80.36,80.36,0,0,1-36.89,28.53" style="fill:#ebebeb"></path><path d="M408.07,445.7c10-11.48,25.88-23.45,41-26.26a83.7,83.7,0,0,1-41,26.26" style="fill:#ebebeb"></path><path d="M402.57,465.41c10-11.48,25.88-23.44,41-26.26a83.56,83.56,0,0,1-41,26.26" style="fill:#ebebeb"></path><path d="M397.15,479.12c2-5.37,3.2-7.59,5.24-13.88,4.05-12.57,7.1-24.15,9.11-32.58,1-4.21,1.78-7.63,2.28-10l.61-2.72c.07-.29.13-.52.18-.71a1,1,0,0,1,.07-.24.93.93,0,0,1,0,.25q0,.28-.12.72L414,422.7c-.45,2.39-1.17,5.82-2.12,10.05-1.91,8.45-4.91,20.06-9,32.66l-4.45,13.71Z" style="fill:#e0e0e0"></path><path d="M108.58,475.57c8.38-11.55,16.06-28.53,15.66-43a80.07,80.07,0,0,0-15.66,43" style="fill:#ebebeb"></path><path d="M102.64,457.24c8.38-11.55,16.06-28.54,15.66-43a80,80,0,0,0-15.66,43" style="fill:#ebebeb"></path><path d="M97.07,437.62c7-12.57,12.59-30.42,10.47-44.63a80.54,80.54,0,0,0-10.47,44.63" style="fill:#ebebeb"></path><path d="M94,421.83c2.19-14.33,1.29-33-5.62-45.12A78.7,78.7,0,0,0,94,421.83" style="fill:#ebebeb"></path><path d="M95.38,429.4c-8.66-11.83-22.8-24.6-36.89-28.53A80.36,80.36,0,0,0,95.38,429.4" style="fill:#ebebeb"></path><path d="M99.68,445.7c-10-11.48-25.88-23.45-41-26.26a83.75,83.75,0,0,0,41,26.26" style="fill:#ebebeb"></path><path d="M105.18,465.41c-10-11.48-25.88-23.44-41-26.26a83.61,83.61,0,0,0,41,26.26" style="fill:#ebebeb"></path><path d="M110.6,479.12c-2-5.37-3.2-7.59-5.24-13.88-4-12.57-7.1-24.15-9.1-32.58-1-4.21-1.78-7.63-2.29-10l-.61-2.72c-.07-.29-.13-.52-.17-.71a1.29,1.29,0,0,0-.08-.24.93.93,0,0,0,0,.25l.12.72c.13.67.3,1.59.51,2.74.45,2.39,1.17,5.82,2.12,10.05,1.91,8.45,4.91,20.06,9,32.66l4.45,13.71Z" style="fill:#e0e0e0"></path><path d="M279.51,98.56S261,205,268.52,364.68H286.9S271.35,176,285.82,99.29Z" style="fill:#f5f5f5"></path><path d="M278.75,257.82a16.78,16.78,0,0,1-10.23-.52c0-.14,2.28.43,5.1.57S278.73,257.67,278.75,257.82Z" style="fill:#ebebeb"></path><path d="M276.63,237.83a13,13,0,0,1-4.34.5,12.51,12.51,0,0,1-4.34-.51c0-.14,1.95,0,4.34,0A42.05,42.05,0,0,1,276.63,237.83Z" style="fill:#ebebeb"></path><path d="M278.26,214.23a9.82,9.82,0,0,1-3.95.69,9.94,9.94,0,0,1-4-.51c0-.14,1.79.07,4,0S278.23,214.09,278.26,214.23Z" style="fill:#ebebeb"></path><path d="M276.3,192.73a13,13,0,0,1-7.37-.59c0-.13,1.66.19,3.68.35A34.44,34.44,0,0,1,276.3,192.73Z" style="fill:#ebebeb"></path><path d="M277.44,170.05a4.73,4.73,0,0,1-2.52.09,4.67,4.67,0,0,1-2.39-.83,12,12,0,0,1,2.46.35A11.39,11.39,0,0,1,277.44,170.05Z" style="fill:#ebebeb"></path><path d="M278.51,144.83a8.11,8.11,0,0,1-4.84-.28,8,8,0,0,1,2.43,0A8.26,8.26,0,0,1,278.51,144.83Z" style="fill:#ebebeb"></path><path d="M282.62,119.68a4.87,4.87,0,0,1-2.3-.17,4.53,4.53,0,0,1-2.14-.86,6.86,6.86,0,0,1,2.25.39A6.67,6.67,0,0,1,282.62,119.68Z" style="fill:#ebebeb"></path><path d="M276.44,280a30.12,30.12,0,0,1-7.59,0,30.12,30.12,0,0,1,7.59,0Z" style="fill:#ebebeb"></path><path d="M281.9,298.32a28.85,28.85,0,0,1-7.58,0,30,30,0,0,1,7.58,0Z" style="fill:#ebebeb"></path><path d="M362.61,27.66c-.31,0-.66.07-1.06.13-7.87,1.28-31.86,10.13-31.86,10.13l-2.05-3.65L325,44.48,310.13,58l-1.45-12.88c-2.1,1.88-5.1,19.73-5.1,19.73L296.49,79l-3.67-17.31c-5.28,8.39-2.24,28-2.24,28L279.9,105.53c-3.28-10.47-3.44-42.11,19.74-65.13S362.61,27.66,362.61,27.66Z" style="fill:#ebebeb"></path><path d="M360.86,28.08a1.1,1.1,0,0,1-.34,0l-1-.12c-.86-.1-2.11-.35-3.75-.49a73.94,73.94,0,0,0-13.87-.12A71.08,71.08,0,0,0,322,32a68.15,68.15,0,0,0-10.8,5.53A63.25,63.25,0,0,0,301,45.73,65.59,65.59,0,0,0,287.52,66.8a80.73,80.73,0,0,0-3.46,10.45c-.9,3.33-1.5,6.49-2,9.38-1,5.79-1.43,10.53-1.7,13.81-.16,1.63-.22,2.91-.3,3.77,0,.41-.07.73-.09,1a1.38,1.38,0,0,1-.05.34,1.8,1.8,0,0,1,0-.34q0-.37,0-1c0-.86.07-2.14.2-3.78.2-3.28.6-8,1.52-13.86.5-2.9,1.08-6.08,2-9.43A78.29,78.29,0,0,1,287,66.61a65.51,65.51,0,0,1,13.6-21.28,63.46,63.46,0,0,1,10.22-8.26,69.1,69.1,0,0,1,10.9-5.54,70.69,70.69,0,0,1,34.07-4.31c1.64.18,2.89.47,3.74.6l1,.18Z" style="fill:#e0e0e0"></path><path d="M275.38,104.8l-.51-1.17s26-33.89,60.41-30,49,26.94,52.36,31.74S399,126.81,399,126.81L377.82,116s-11.28-21.9-19.2-24.73c0,0,16.33,25.59,16.47,41.1,0,0-13.94-9.86-16.92-10.47,0,0-4.89-15.6-13.89-21.27l5.85,16L331.07,106.4l-5.68-8.8L323,103.3S305.8,94.81,275.38,104.8Z" style="fill:#ebebeb"></path><path d="M275.4,104.66c.26,0,.55,0,.87,0,6.45.5,26.23,6.67,26.23,6.67l1.57-3.59,2.46,9.31L319,128.44l.84-12.18c1.76,1.58,4.68,18,4.68,18l6.16,12.62,2.52-16.53c4.53,7.39,2.57,26,2.57,26l9,15.93c2.4-10.08,1.82-41.73-17.68-61.23S275.4,104.66,275.4,104.66Z" style="fill:#ebebeb"></path><path d="M275.53,104.57c-2.11-7.68-13.44-25-13.44-25l4.82-2.73-9.37-1.35L242.85,62.08l8.76-4c-2.1-1.89-16.9-1.55-16.9-1.55L221.65,50l11.26-3.67C224,42,210.42,45.28,210.42,45.28l-19-8.47c10.07-4.38,44.55-13.4,69.91,7.19s17.77,60.83,17.77,60.83" style="fill:#ebebeb"></path><path d="M277.53,104.18c-.22-.16-1.69.58-2,.39-6.13-3.72-24.09-3.94-24.09-3.94l.86-4.07-8.12,6.34-18.41,1.64,7-10.91c-2.59.2-15.62,12.31-15.62,12.31l-15.37,9.33,8.18-15.69c-4.06,3.34-16.95,17.88-16.95,17.88l-18.19,7.77C179,115.1,198.33,81.7,228.27,77.67S277.53,104.18,277.53,104.18Z" style="fill:#ebebeb"></path><path d="M354.54,87.28a8.1,8.1,0,0,1-.75-.42,17.41,17.41,0,0,0-2.22-1,28.32,28.32,0,0,0-3.7-1.09c-1.46-.35-3.16-.57-5-.91a79.76,79.76,0,0,0-29.55,1.26,82.86,82.86,0,0,0-15.7,5.34l-1.73.78c-.57.27-1.11.57-1.66.84-1.08.57-2.15,1.09-3.15,1.66-2,1.19-3.86,2.21-5.47,3.36-.82.54-1.6,1.06-2.33,1.56l-2,1.51c-1.26.94-2.34,1.75-3.18,2.49l-2,1.64a6.15,6.15,0,0,1-.7.54,6.65,6.65,0,0,1,.64-.63l1.92-1.72c.81-.76,1.88-1.6,3.13-2.57.63-.48,1.29-1,2-1.55l2.33-1.6c1.61-1.17,3.49-2.22,5.47-3.43,1-.57,2.07-1.1,3.15-1.68.55-.29,1.09-.59,1.66-.86l1.75-.8a80.84,80.84,0,0,1,15.77-5.41,77.19,77.19,0,0,1,29.7-1.1c1.87.36,3.58.61,5,1a24.7,24.7,0,0,1,3.71,1.19,15.07,15.07,0,0,1,2.19,1.13c.24.15.41.28.53.37A1.07,1.07,0,0,1,354.54,87.28Z" style="fill:#e0e0e0"></path><path d="M344.93,74.73a4.41,4.41,0,0,1-.78-.13c-.51-.08-1.24-.28-2.21-.43a54.9,54.9,0,0,0-8.24-.84,63.18,63.18,0,0,0-26.85,5.43,86,86,0,0,0-23.48,15.69c-2.7,2.5-4.78,4.65-6.19,6.17-.72.75-1.24,1.36-1.62,1.76a5.63,5.63,0,0,1-.58.59,4.46,4.46,0,0,1,.51-.67c.35-.42.86-1,1.55-1.82,1.37-1.57,3.42-3.77,6.1-6.31a83.49,83.49,0,0,1,23.53-15.91A61.67,61.67,0,0,1,333.73,73,50.12,50.12,0,0,1,342,74c1,.18,1.69.42,2.19.54A4.09,4.09,0,0,1,344.93,74.73Z" style="fill:#e0e0e0"></path><path d="M319.94,104.56a12,12,0,0,1-1.71-.46c-1.09-.33-2.67-.79-4.65-1.26s-4.35-.93-7-1.32l-2-.29a14.91,14.91,0,0,0-2.12-.19c-1.45,0-3,0-4.53,0a28.67,28.67,0,0,0-4.49.33q-2.17.3-4.17.63c-2.65.44-5,.91-7,1.33l-4.71,1.05a12,12,0,0,1-1.74.35,1.33,1.33,0,0,1,.43-.17q.43-.15,1.26-.39c1.09-.32,2.69-.75,4.67-1.22s4.37-1,7-1.44c1.33-.24,2.73-.46,4.18-.67a27.11,27.11,0,0,1,4.56-.34c1.54,0,3.07-.08,4.55,0a15.19,15.19,0,0,1,2.17.22l2.05.31a71.69,71.69,0,0,1,7,1.44c2,.52,3.55,1,4.63,1.43l1.22.46A2.15,2.15,0,0,1,319.94,104.56Z" style="fill:#e0e0e0"></path><path d="M278.39,97.49a4,4,0,0,1-.13-.71c-.08-.52-.17-1.19-.29-2-.06-.44-.13-.93-.2-1.46s-.2-1.11-.31-1.73c-.25-1.24-.46-2.66-.87-4.19-.19-.77-.39-1.58-.59-2.42s-.5-1.69-.76-2.59c-.5-1.8-1.22-3.66-1.93-5.63a89,89,0,0,0-6-12.24,87.72,87.72,0,0,0-7.95-11.06c-1.4-1.56-2.69-3.08-4-4.37-.67-.65-1.28-1.31-1.92-1.89l-1.85-1.67c-1.15-1.09-2.31-2-3.28-2.75-.49-.39-.94-.77-1.37-1.1l-1.2-.87-1.65-1.21a3,3,0,0,1-.55-.46,4.13,4.13,0,0,1,.62.37l1.71,1.12,1.23.83c.44.31.9.68,1.41,1.07,1,.78,2.17,1.62,3.35,2.69l1.88,1.65c.65.58,1.28,1.24,2,1.89,1.37,1.28,2.69,2.79,4.11,4.36a78.08,78.08,0,0,1,14,23.45c.71,2,1.41,3.87,1.89,5.69.25.9.54,1.76.74,2.61s.38,1.66.55,2.44c.4,1.55.58,3,.79,4.23.1.62.21,1.2.27,1.74s.11,1,.15,1.48c.07.84.13,1.51.18,2A2.83,2.83,0,0,1,278.39,97.49Z" style="fill:#e0e0e0"></path><path d="M267.53,50.81a13.28,13.28,0,0,1,1.13,1.51c.35.5.77,1.11,1.21,1.86s1,1.56,1.49,2.52a62.24,62.24,0,0,1,3.28,6.91,68.89,68.89,0,0,1,2.83,8.92,68.66,68.66,0,0,1,1.47,9.25,61.5,61.5,0,0,1,.16,7.64c0,1.09-.13,2.07-.2,2.93s-.16,1.6-.26,2.2a11.27,11.27,0,0,1-.33,1.86,11.41,11.41,0,0,1,.11-1.88c.06-.61.13-1.34.16-2.2s.12-1.84.11-2.92a67.11,67.11,0,0,0-.28-7.58,74.71,74.71,0,0,0-1.5-9.16,73.81,73.81,0,0,0-2.76-8.87A67.22,67.22,0,0,0,271,56.9c-.47-1-1-1.81-1.4-2.56s-.81-1.38-1.13-1.9A12,12,0,0,1,267.53,50.81Z" style="fill:#e0e0e0"></path><path d="M205.85,95.2a5,5,0,0,1,.58-.49c.4-.3,1-.78,1.74-1.3a46.22,46.22,0,0,1,6.92-4,49.95,49.95,0,0,1,25.75-4.55,49.88,49.88,0,0,1,24.44,9.31,46.12,46.12,0,0,1,6,5.23c.68.66,1.13,1.24,1.47,1.6a4,4,0,0,1,.47.59,3.25,3.25,0,0,1-.56-.51c-.36-.34-.84-.89-1.53-1.52a51.85,51.85,0,0,0-16.44-10.69,50.11,50.11,0,0,0-39.47.91,51.56,51.56,0,0,0-7,3.81c-.81.5-1.38,1-1.8,1.21A2.94,2.94,0,0,1,205.85,95.2Z" style="fill:#e0e0e0"></path><path d="M101,191.49S85.89,261.57,86.62,367.71l12.21,0s-5.32-125,6.32-175.51Z" style="fill:#f5f5f5"></path><path d="M96.25,297.1a8.63,8.63,0,0,1-3.44.22,8.91,8.91,0,0,1-3.34-.83c0-.1,1.5.34,3.37.51S96.24,297,96.25,297.1Z" style="fill:#ebebeb"></path><path d="M95.37,283.79a8.9,8.9,0,0,1-2.89.22,8.54,8.54,0,0,1-2.87-.46c0-.09,1.3.07,2.88.13A25.7,25.7,0,0,1,95.37,283.79Z" style="fill:#ebebeb"></path><path d="M97.08,268.18a9,9,0,0,1-5.27-.09c0-.1,1.19.09,2.64.11S97.07,268.09,97.08,268.18Z" style="fill:#ebebeb"></path><path d="M96.35,253.87a6.07,6.07,0,0,1-2.48.06,5.91,5.91,0,0,1-2.39-.65,23.06,23.06,0,0,1,2.43.33A20.32,20.32,0,0,1,96.35,253.87Z" style="fill:#ebebeb"></path><path d="M97.71,238.85a2.91,2.91,0,0,1-1.67,0,3,3,0,0,1-1.56-.62,8.5,8.5,0,0,1,1.62.3A8.12,8.12,0,0,1,97.71,238.85Z" style="fill:#ebebeb"></path><path d="M99.09,222.16a5.49,5.49,0,0,1-3.2-.32,5.74,5.74,0,0,1,1.61.08A5.6,5.6,0,0,1,99.09,222.16Z" style="fill:#ebebeb"></path><path d="M102.49,205.59a3.36,3.36,0,0,1-1.53-.17,3.19,3.19,0,0,1-1.39-.63,4.37,4.37,0,0,1,1.48.31A4.19,4.19,0,0,1,102.49,205.59Z" style="fill:#ebebeb"></path><path d="M94.13,311.73a9.79,9.79,0,0,1-2.53.06,9.5,9.5,0,0,1-2.5-.26,9.65,9.65,0,0,1,2.52-.06A9.7,9.7,0,0,1,94.13,311.73Z" style="fill:#ebebeb"></path><path d="M97.26,324.05a10.2,10.2,0,0,1-2.52.06,10.25,10.25,0,0,1-2.51-.26,9.9,9.9,0,0,1,2.52-.07A10,10,0,0,1,97.26,324.05Z" style="fill:#ebebeb"></path><path d="M142.77,141.66l-.58.17c-4.28,1.43-16.87,8.55-16.87,8.55l-1.48-1.85-.57,5.94-7,8.9-2-7.06c-1,1.25-1,11.48-1,11.48l-2.68,8.55L106.89,167c-2.19,5.17,1.29,15.83,1.29,15.83l-4.52,9.83c-2.78-5.55-5.75-23.2,5.1-38.16S142.77,141.66,142.77,141.66Z" style="fill:#ebebeb"></path><path d="M141.83,142.06h-.19l-.56,0c-.49,0-1.21,0-2.14.07a41.87,41.87,0,0,0-7.76,1.2,40.37,40.37,0,0,0-10.72,4.43,38.6,38.6,0,0,0-5.53,4.07,35.53,35.53,0,0,0-4.9,5.49,37.19,37.19,0,0,0-5.64,13,46.67,46.67,0,0,0-1,6.14c-.2,1.94-.24,3.77-.27,5.43,0,3.32.16,6,.3,7.86.06.93.14,1.65.18,2.14,0,.22,0,.41,0,.55s0,.19,0,.19a.88.88,0,0,1,0-.19c0-.14,0-.32-.08-.55,0-.48-.15-1.2-.23-2.13-.19-1.85-.4-4.54-.41-7.88,0-1.66,0-3.49.24-5.44a44,44,0,0,1,.95-6.19,37.12,37.12,0,0,1,5.66-13.12,36.26,36.26,0,0,1,5-5.54,38.4,38.4,0,0,1,5.58-4.09,39.87,39.87,0,0,1,10.83-4.39,39.22,39.22,0,0,1,7.81-1.11c.93-.05,1.65,0,2.14,0h.56C141.76,142,141.83,142.05,141.83,142.06Z" style="fill:#e0e0e0"></path><path d="M101.07,192.67l-.39-.61s11.43-21.28,31-22.24a39.79,39.79,0,0,1,32.12,13c2.32,2.37,8.3,10.93,8.3,10.93l-12.82-4.13s-8.29-11.21-13-12.06c0,0,11.44,12.8,12.94,21.45,0,0-8.69-4.24-10.41-4.31,0,0-4.15-8.27-9.69-10.61l4.72,8.4-11.56-3.95-4-4.4-.81,3.4S117.15,184.32,101.07,192.67Z" style="fill:#ebebeb"></path><path d="M101.07,192.59a3.28,3.28,0,0,1,.49-.06c3.64-.3,15.25,1.34,15.25,1.34l.55-2.15,2.22,5,8,5.21-.64-6.88c1.13.72,4.25,9.63,4.25,9.63l4.59,6.48-.09-9.45c3.2,3.71,3.8,14.27,3.8,14.27l6.47,8.08c.42-5.84-2.79-23.46-15.45-32.58S101.07,192.59,101.07,192.59Z" style="fill:#ebebeb"></path><path d="M101.14,192.53c-1.88-4.1-9.79-12.76-9.79-12.76l2.45-2-5.36.09L79,171.77l4.53-3c-1.34-.87-9.58.67-9.58.67L66.09,167l6-3.07c-5.37-1.62-12.66,1.45-12.66,1.45l-11.39-3C53.21,159,71.65,150.8,87.68,160s15.45,32.35,15.45,32.35" style="fill:#ebebeb"></path><path d="M102.22,192.13c-.14-.08-.89.47-1.08.4-3.77-1.52-13.82,0-13.82,0l.11-2.36-4,4.28L73.35,197l2.89-6.72c-1.43.35-7.61,8.29-7.61,8.29l-7.73,6.61,3.14-9.5c-2,2.23-7.83,11.52-7.83,11.52l-9.46,6c1.44-6,9.2-26.45,25.55-31.42S102.22,192.13,102.22,192.13Z" style="fill:#ebebeb"></path><path d="M143.68,175.68a2.2,2.2,0,0,1-.46-.16,8.91,8.91,0,0,0-1.33-.38,15.24,15.24,0,0,0-2.16-.27c-.85-.06-1.82,0-2.89-.05a45,45,0,0,0-16.39,3.39,46.48,46.48,0,0,0-8.28,4.41l-.9.59c-.29.2-.57.42-.85.62-.55.42-1.1.81-1.61,1.21-1,.85-2,1.59-2.75,2.38l-1.16,1.08-1,1c-.62.63-1.15,1.19-1.54,1.68l-1,1.09a2.52,2.52,0,0,1-.35.37,3,3,0,0,1,.3-.41l.91-1.13c.39-.51.91-1.07,1.52-1.73.31-.32.63-.68,1-1l1.15-1.11c.79-.8,1.75-1.55,2.74-2.41.51-.41,1.06-.81,1.61-1.23.28-.21.56-.43.85-.63l.9-.6a46,46,0,0,1,8.32-4.46,43.83,43.83,0,0,1,16.49-3.32c1.07,0,2,0,2.9.1a13.66,13.66,0,0,1,2.18.33,7.83,7.83,0,0,1,1.32.43,2.58,2.58,0,0,1,.33.16Z" style="fill:#e0e0e0"></path><path d="M137.17,169.55h-.44c-.29,0-.72,0-1.28,0a31.41,31.41,0,0,0-4.67.28,35.75,35.75,0,0,0-14.5,5.48,48.6,48.6,0,0,0-11.69,10.89c-1.28,1.64-2.25,3-2.89,4-.34.48-.57.87-.75,1.13a2.74,2.74,0,0,1-.27.38,3.44,3.44,0,0,1,.22-.42c.16-.26.39-.66.71-1.16.62-1,1.56-2.41,2.83-4.08a47.15,47.15,0,0,1,11.69-11,34.9,34.9,0,0,1,14.63-5.42,27.34,27.34,0,0,1,4.7-.19c.55,0,1,.08,1.27.1A2.59,2.59,0,0,1,137.17,169.55Z" style="fill:#e0e0e0"></path><path d="M125.93,188.48a5.51,5.51,0,0,1-1-.1c-.64-.08-1.57-.2-2.72-.28s-2.51-.12-4-.1L117,188a8.08,8.08,0,0,0-1.2.09c-.82.12-1.65.29-2.53.44a15.91,15.91,0,0,0-2.47.59c-.79.24-1.55.49-2.28.73-1.44.49-2.72,1-3.8,1.38l-2.53,1a6.83,6.83,0,0,1-.94.35l.22-.13.67-.33c.58-.28,1.44-.66,2.5-1.11s2.35-.94,3.79-1.44c.72-.26,1.48-.51,2.28-.76a16.43,16.43,0,0,1,2.51-.6c.86-.15,1.71-.32,2.54-.44a7.4,7.4,0,0,1,1.23-.08h1.17c1.53,0,2.91.05,4.06.16s2.08.26,2.71.38l.73.15Z" style="fill:#e0e0e0"></path><path d="M102.09,188.31a2,2,0,0,1-.14-.38c-.09-.29-.21-.65-.35-1.11-.07-.24-.15-.51-.24-.8s-.21-.6-.33-.93c-.25-.67-.5-1.45-.87-2.27-.17-.41-.36-.84-.55-1.29s-.43-.9-.66-1.38c-.44-1-1-1.93-1.59-3a50.34,50.34,0,0,0-4.44-6.29,49.14,49.14,0,0,0-5.45-5.45c-.92-.75-1.78-1.48-2.65-2.07-.43-.31-.84-.62-1.25-.89l-1.18-.76c-.74-.51-1.47-.88-2.08-1.24-.31-.17-.6-.35-.87-.49l-.75-.37-1-.53-.35-.21a1.6,1.6,0,0,1,.38.15l1.06.47.76.35.88.47c.63.35,1.36.71,2.12,1.2l1.2.75c.42.26.83.58,1.26.88.89.59,1.76,1.31,2.69,2.06a47.18,47.18,0,0,1,5.5,5.47A48,48,0,0,1,97.62,177c.57,1.05,1.14,2,1.57,3,.23.48.46.94.65,1.4s.36.89.53,1.31c.36.83.59,1.61.83,2.29.11.34.22.65.31.95s.15.56.21.81c.12.46.22.83.29,1.12A2.38,2.38,0,0,1,102.09,188.31Z" style="fill:#e0e0e0"></path><path d="M91.78,163.23a8.4,8.4,0,0,1,.77.74c.24.25.53.55.84.93s.7.78,1.06,1.28a34.57,34.57,0,0,1,2.46,3.55,39.32,39.32,0,0,1,2.39,4.73,36.86,36.86,0,0,1,1.66,5,34.47,34.47,0,0,1,.79,4.25c.09.61.11,1.17.15,1.66a11.88,11.88,0,0,1,.06,1.25,5.55,5.55,0,0,1,0,1.07,6.7,6.7,0,0,1-.1-1.07c0-.34-.06-.76-.12-1.24s-.09-1-.2-1.64a37.34,37.34,0,0,0-.85-4.21,37.27,37.27,0,0,0-4-9.67,36.73,36.73,0,0,0-2.38-3.57c-.35-.5-.71-.92-1-1.3s-.57-.7-.8-1A5.66,5.66,0,0,1,91.78,163.23Z" style="fill:#e0e0e0"></path><path d="M61.37,193.63a3.12,3.12,0,0,1,.28-.33c.2-.2.46-.52.85-.88A24.88,24.88,0,0,1,66,189.56,27.75,27.75,0,0,1,72,186.44a27.37,27.37,0,0,1,16.21-1.08,28.11,28.11,0,0,1,6.3,2.29A25.4,25.4,0,0,1,98.31,190c.44.31.75.59,1,.76a3.23,3.23,0,0,1,.32.29,1.72,1.72,0,0,1-.36-.24c-.23-.15-.55-.42-1-.71a29.58,29.58,0,0,0-10.15-4.47,27.75,27.75,0,0,0-16,1.07,28.91,28.91,0,0,0-5.93,3,29.26,29.26,0,0,0-3.54,2.76c-.4.35-.68.65-.89.84A2.06,2.06,0,0,1,61.37,193.63Z" style="fill:#e0e0e0"></path><path d="M150.12,219.4a14.4,14.4,0,0,1,1.73-3.6,5,5,0,0,1,3.27-2.13,3,3,0,0,1,3.22,1.82,18.91,18.91,0,0,1,2-8.24c1.43-2.47,4.09-4.42,6.94-4.24,2.68.16,5,2.16,6.26,4.53a23.82,23.82,0,0,1,2.14,7.74c1-1.25,3.17-.86,4.23.35a8.52,8.52,0,0,1,1.56,4.51h-32Z" style="fill:#f5f5f5"></path><path d="M31.35,258.4a14.17,14.17,0,0,1,1.73-3.59,5,5,0,0,1,3.27-2.13,3,3,0,0,1,3.22,1.82,19,19,0,0,1,2-8.25c1.43-2.47,4.09-4.41,6.94-4.24,2.68.17,5,2.16,6.26,4.53a24,24,0,0,1,2.14,7.75c1-1.25,3.17-.86,4.23.35a8.49,8.49,0,0,1,1.56,4.5h-32Z" style="fill:#f5f5f5"></path><path d="M36.62,123.48a18.76,18.76,0,0,1,2.24-4.64,6.39,6.39,0,0,1,4.21-2.74,3.9,3.9,0,0,1,4.16,2.35c.25-3.68.77-7.45,2.61-10.64s5.27-5.7,8.95-5.47c3.46.21,6.43,2.78,8.08,5.84s2.22,6.56,2.76,10c1.31-1.61,4.09-1.1,5.46.46s1.72,3.75,2,5.81H35.76Z" style="fill:#f5f5f5"></path><path d="M105.22,61.75a26.07,26.07,0,0,1,3.07-6.35,8.78,8.78,0,0,1,5.76-3.75,5.36,5.36,0,0,1,5.7,3.21c.34-5,1-10.19,3.57-14.56s7.21-7.8,12.24-7.49c4.75.29,8.81,3.82,11.06,8s3,9,3.78,13.67c1.79-2.2,5.59-1.51,7.47.63s2.35,5.13,2.75,8H104Z" style="fill:#ebebeb"></path><path d="M311.05,198.58a15.29,15.29,0,0,1,1.86-3.86,5.34,5.34,0,0,1,3.5-2.29,3.27,3.27,0,0,1,3.47,2c.2-3.06.63-6.2,2.16-8.85s4.39-4.74,7.45-4.56c2.88.18,5.35,2.32,6.72,4.87a25.43,25.43,0,0,1,2.3,8.31c1.09-1.34,3.4-.92,4.54.38s1.43,3.12,1.67,4.83H310.33Z" style="fill:#ebebeb"></path><path d="M418,139.93a27.52,27.52,0,0,1,3.26-6.75,9.29,9.29,0,0,1,6.13-4,5.69,5.69,0,0,1,6.06,3.41c.36-5.35,1.11-10.84,3.79-15.48s7.67-8.29,13-8c5,.3,9.36,4,11.76,8.5s3.22,9.55,4,14.54c1.91-2.34,5.95-1.61,7.95.67s2.5,5.46,2.92,8.45H416.78Z" style="fill:#f5f5f5"></path><path d="M424.11,215.67s15.47,51.91,14.79,150.91l-11.37.45s3.55-103.66-7.3-150.75Z" style="fill:#f5f5f5"></path><path d="M428.53,314.18a10.47,10.47,0,0,0,6.32-.58c0-.08-1.4.33-3.14.48S428.54,314.09,428.53,314.18Z" style="fill:#ebebeb"></path><path d="M429.35,301.76a7.82,7.82,0,0,0,2.7.2,7.65,7.65,0,0,0,2.67-.42,26.71,26.71,0,0,0-2.68.12A23.8,23.8,0,0,0,429.35,301.76Z" style="fill:#ebebeb"></path><path d="M427.76,287.2a5.8,5.8,0,0,0,2.46.33,5.85,5.85,0,0,0,2.45-.42c0-.08-1.11.09-2.46.11S427.77,287.11,427.76,287.2Z" style="fill:#ebebeb"></path><path d="M428.44,273.85a5.45,5.45,0,0,0,2.31.06,5.72,5.72,0,0,0,2.23-.6,18.7,18.7,0,0,0-2.27.3A20.14,20.14,0,0,0,428.44,273.85Z" style="fill:#ebebeb"></path><path d="M427.17,259.85a4.26,4.26,0,0,0,3-.58,7.68,7.68,0,0,0-1.51.27A6.77,6.77,0,0,0,427.17,259.85Z" style="fill:#ebebeb"></path><path d="M425.88,244.28a3.21,3.21,0,0,0,1.52.08,3.26,3.26,0,0,0,1.47-.38,4.79,4.79,0,0,0-1.5.07A5.1,5.1,0,0,0,425.88,244.28Z" style="fill:#ebebeb"></path><path d="M422.71,228.82a3.13,3.13,0,0,0,1.42-.16,3,3,0,0,0,1.31-.59,4.28,4.28,0,0,0-1.39.3A3.94,3.94,0,0,0,422.71,228.82Z" style="fill:#ebebeb"></path><path d="M430.51,327.82a9,9,0,0,0,2.35.06,9.39,9.39,0,0,0,2.34-.24,8.87,8.87,0,0,0-2.35-.06A9.56,9.56,0,0,0,430.51,327.82Z" style="fill:#ebebeb"></path><path d="M427.59,339.31a8.87,8.87,0,0,0,2.35.06,8.68,8.68,0,0,0,2.34-.25,9.77,9.77,0,0,0-2.35-.05A9.39,9.39,0,0,0,427.59,339.31Z" style="fill:#ebebeb"></path><path d="M385.14,169.19a3.91,3.91,0,0,1,.54.16c4,1.33,15.74,8,15.74,8l1.37-1.72.54,5.54,6.57,8.3,1.85-6.58c.94,1.15,1,10.7,1,10.7l2.5,8,3.38-8.7c2,4.82-1.21,14.76-1.21,14.76l4.22,9.17c2.6-5.17,5.36-21.64-4.76-35.6S385.14,169.19,385.14,169.19Z" style="fill:#ebebeb"></path><path d="M386,169.56h.17l.52,0c.46,0,1.14,0,2,.06a40.25,40.25,0,0,1,7.24,1.12,37.59,37.59,0,0,1,10,4.14,36.22,36.22,0,0,1,5.16,3.79A31.6,31.6,0,0,1,420.94,196a41.87,41.87,0,0,1,.91,5.73c.19,1.81.23,3.51.26,5.06,0,3.1-.15,5.6-.29,7.33-.06.87-.13,1.54-.16,2,0,.22,0,.39,0,.52s0,.18,0,.18l0-.17.07-.52c0-.45.14-1.12.22-2,.17-1.72.37-4.23.38-7.34,0-1.56,0-3.26-.22-5.08a42.38,42.38,0,0,0-.89-5.78,34.67,34.67,0,0,0-5.28-12.23,33.91,33.91,0,0,0-4.62-5.17,36.56,36.56,0,0,0-5.21-3.81,37.17,37.17,0,0,0-10.1-4.1,36.05,36.05,0,0,0-7.28-1c-.87,0-1.55,0-2,0h-.52Z" style="fill:#e0e0e0"></path><path d="M424,216.77l.36-.57s-10.66-19.85-28.92-20.75a37.14,37.14,0,0,0-30,12.09c-2.16,2.22-7.74,10.2-7.74,10.2l12-3.86s7.73-10.45,12.1-11.25c0,0-10.68,12-12.07,20,0,0,8.1-4,9.7-4,0,0,3.88-7.72,9-9.9l-4.4,7.83,10.79-3.68,3.71-4.11.75,3.18S409,209,424,216.77Z" style="fill:#ebebeb"></path><path d="M424,216.69l-.45-.05c-3.4-.29-14.23,1.25-14.23,1.25l-.51-2-2.07,4.65-7.45,4.85.6-6.41c-1.05.67-4,9-4,9L391.68,234l.09-8.82c-3,3.46-3.55,13.32-3.55,13.32l-6,7.53c-.4-5.45,2.59-21.89,14.4-30.39S424,216.69,424,216.69Z" style="fill:#ebebeb"></path><path d="M424,216.64c1.75-3.83,9.13-11.9,9.13-11.9l-2.28-1.83,5,.09,8.79-5.72-4.22-2.83c1.25-.81,8.93.62,8.93.62l7.36-2.28-5.56-2.87c5-1.51,11.81,1.36,11.81,1.36l10.63-2.8c-4.87-3.14-22.07-10.76-37-2.19s-14.41,30.18-14.41,30.18" style="fill:#ebebeb"></path><path d="M423,216.26c.14-.07.84.45,1,.38,3.51-1.42,12.89,0,12.89,0l-.1-2.19,3.68,4,9.45,2.42-2.69-6.27c1.33.32,7.09,7.73,7.09,7.73l7.21,6.17-2.93-8.87c1.83,2.08,7.31,10.75,7.31,10.75l8.82,5.59c-1.34-5.63-8.58-24.67-23.83-29.31S423,216.26,423,216.26Z" style="fill:#ebebeb"></path><path d="M384.29,200.92a2.46,2.46,0,0,0,.43-.15,8.13,8.13,0,0,1,1.24-.35,12.32,12.32,0,0,1,2-.25c.79-.06,1.69,0,2.69,0A41.77,41.77,0,0,1,406,203.28a42.88,42.88,0,0,1,7.72,4.11l.84.56c.27.18.53.39.79.58.52.38,1,.74,1.5,1.12.93.79,1.83,1.48,2.57,2.22l1.08,1,.92,1c.58.59,1.07,1.11,1.45,1.56l.88,1a3.09,3.09,0,0,0,.33.35s-.1-.14-.29-.38l-.85-1.06c-.36-.47-.85-1-1.41-1.61l-.92-1-1.07-1c-.74-.75-1.63-1.46-2.56-2.26-.47-.38-1-.75-1.5-1.14-.26-.19-.52-.4-.79-.59l-.84-.56a42.42,42.42,0,0,0-7.76-4.16,40.78,40.78,0,0,0-15.38-3.09c-1,0-1.91,0-2.71.09a13,13,0,0,0-2,.3,7.09,7.09,0,0,0-1.24.41l-.31.14Z" style="fill:#e0e0e0"></path><path d="M390.36,195.2a2.12,2.12,0,0,0,.41,0c.28,0,.68,0,1.19,0a28.08,28.08,0,0,1,4.36.26,33.25,33.25,0,0,1,13.53,5.1,45.08,45.08,0,0,1,10.9,10.17c1.2,1.53,2.1,2.83,2.7,3.74.31.45.53.81.69,1.05a2.69,2.69,0,0,0,.26.36,2.76,2.76,0,0,0-.21-.39c-.15-.25-.36-.62-.66-1.09-.57-.93-1.46-2.25-2.64-3.8A43.68,43.68,0,0,0,410,200.29a32.36,32.36,0,0,0-13.64-5.06,25.33,25.33,0,0,0-4.38-.17c-.52,0-.92.07-1.19.09A1.91,1.91,0,0,0,390.36,195.2Z" style="fill:#e0e0e0"></path><path d="M400.84,212.86a5.2,5.2,0,0,0,.93-.09c.6-.08,1.46-.19,2.53-.26s2.35-.12,3.77-.1l1.09,0a7,7,0,0,1,1.12.07c.76.11,1.54.28,2.35.42a14.16,14.16,0,0,1,2.31.55c.74.22,1.45.45,2.12.68,1.35.45,2.55.9,3.55,1.29l2.36.94a9,9,0,0,0,.88.34.72.72,0,0,0-.21-.13l-.62-.31c-.55-.26-1.34-.62-2.34-1s-2.19-.88-3.53-1.35c-.67-.23-1.38-.47-2.12-.7a14.4,14.4,0,0,0-2.35-.56c-.8-.14-1.59-.31-2.36-.41a7.72,7.72,0,0,0-1.16-.08h-1.09a35.28,35.28,0,0,0-3.78.16c-1.08.1-1.94.24-2.53.35-.3.05-.53.1-.68.14A.81.81,0,0,0,400.84,212.86Z" style="fill:#e0e0e0"></path><path d="M423.08,212.7a1.8,1.8,0,0,0,.14-.35c.08-.27.19-.61.32-1,.07-.22.14-.47.22-.74s.2-.56.32-.88c.23-.62.46-1.34.8-2.11.17-.38.34-.79.51-1.21s.41-.83.62-1.28c.41-.89.95-1.8,1.48-2.77a48.68,48.68,0,0,1,4.15-5.87,46.8,46.8,0,0,1,5.08-5.08c.86-.7,1.66-1.38,2.48-1.93.4-.29.77-.58,1.16-.83l1.1-.71c.69-.47,1.37-.82,1.94-1.16l.81-.45c.25-.13.48-.25.7-.35l1-.49a1.93,1.93,0,0,0,.33-.2,2.89,2.89,0,0,0-.36.14l-1,.44-.71.33c-.25.12-.52.28-.82.43-.58.33-1.27.66-2,1.13l-1.12.69c-.39.25-.77.54-1.18.82-.82.55-1.64,1.23-2.51,1.92a44.87,44.87,0,0,0-5.13,5.11,44,44,0,0,0-4.16,5.92c-.53,1-1.06,1.9-1.46,2.8-.21.45-.43.88-.61,1.3l-.5,1.22c-.33.78-.55,1.51-.77,2.14-.1.32-.2.61-.28.88s-.14.53-.21.76c-.11.43-.19.78-.26,1.05A2,2,0,0,0,423.08,212.7Z" style="fill:#e0e0e0"></path><path d="M432.7,189.31a6.73,6.73,0,0,0-.71.69c-.23.23-.5.52-.79.86s-.65.74-1,1.2a33.18,33.18,0,0,0-2.3,3.31,33.19,33.19,0,0,0-3.78,9.1,32.84,32.84,0,0,0-.73,4c-.08.57-.11,1.09-.14,1.54s-.06.85-.06,1.17a6,6,0,0,0,0,1,7.65,7.65,0,0,0,.1-1c0-.32.05-.71.1-1.16s.1-1,.19-1.53a38.41,38.41,0,0,1,.79-3.93A39,39,0,0,1,426,199.9a40.61,40.61,0,0,1,2.19-4.38,34.16,34.16,0,0,1,2.23-3.33c.33-.47.66-.86.95-1.22s.53-.65.74-.89A5.18,5.18,0,0,0,432.7,189.31Z" style="fill:#e0e0e0"></path><path d="M461.06,217.66a2,2,0,0,0-.26-.3c-.18-.19-.43-.49-.79-.83a25.06,25.06,0,0,0-3.27-2.67A25.8,25.8,0,0,0,436.08,210a25.77,25.77,0,0,0-5.88,2.14,24.94,24.94,0,0,0-3.6,2.21c-.4.28-.69.55-.89.71s-.31.26-.3.27l.33-.22c.22-.15.52-.4.93-.67a27.52,27.52,0,0,1,9.47-4.17A26.4,26.4,0,0,1,456.62,214a28.46,28.46,0,0,1,3.31,2.58c.37.32.63.61.83.78A1.56,1.56,0,0,0,461.06,217.66Z" style="fill:#e0e0e0"></path><path d="M368.72,356.2c-34.45,3.48-48.14,7-51.93,6.09s-121.06-37.15-172.14-27.73S34.94,367.47,34.94,367.47H446.86S403.17,352.72,368.72,356.2Z" style="fill:#ebebeb"></path><path d="M238.61,367.39c-116.25,0-203.67-.05-203.67.08s87.42.38,203.67.38,210.42-.1,210.42-.23S354.8,367.39,238.61,367.39Z" style="fill:#e0e0e0"></path><path d="M475,367.64c0,.14-102.59.26-229.12.26s-229.15-.12-229.15-.26,102.58-.26,229.15-.26S475,367.49,475,367.64Z" style="fill:#e0e0e0"></path></g><g id="freepik--Table--inject-469"><path d="M467,479.11c0,.14-97.58.26-217.92.26s-217.95-.12-217.95-.26,97.56-.26,218-.26S467,479,467,479.11Z" style="fill:#263238"></path></g><g id="freepik--Birds--inject-469"><path d="M89.34,80.49s-.61-.21-1.74-.46a14,14,0,0,0-4.85-.19,13.09,13.09,0,0,0-6.54,2.83A13.57,13.57,0,0,0,71.59,90l0,.09-.13.52-.2-.5a14.66,14.66,0,0,0-5.53-6.67A14.13,14.13,0,0,0,59,81.18a15,15,0,0,0-4.82.44c-1.12.29-1.7.55-1.72.52a2.63,2.63,0,0,1,.42-.2,8.85,8.85,0,0,1,1.26-.45,14.39,14.39,0,0,1,11.79,1.67A14.7,14.7,0,0,1,71.56,90l-.33,0,0-.09A13.75,13.75,0,0,1,76,82.41a13.1,13.1,0,0,1,6.71-2.81,13.35,13.35,0,0,1,4.91.3,10.11,10.11,0,0,1,1.28.4A2.65,2.65,0,0,1,89.34,80.49Z" style="fill:#263238"></path><path d="M125.48,98.3s-.35-.1-1-.22a7.59,7.59,0,0,0-2.65-.08,7.07,7.07,0,0,0-3.56,1.55,7.42,7.42,0,0,0-2.51,4v0l-.13.52-.2-.5a8,8,0,0,0-3-3.63,7.77,7.77,0,0,0-3.68-1.25,8.5,8.5,0,0,0-2.64.22c-.61.15-.94.28-1,.25a.82.82,0,0,1,.23-.12,4.69,4.69,0,0,1,.69-.26,7.64,7.64,0,0,1,2.69-.34,8,8,0,0,1,3.84,1.22,8.19,8.19,0,0,1,3.15,3.78l-.33,0v-.05a7.61,7.61,0,0,1,2.65-4.16,7.21,7.21,0,0,1,3.73-1.55,7.29,7.29,0,0,1,2.72.19,6,6,0,0,1,.7.24Z" style="fill:#263238"></path><path d="M109.8,58.31a13.27,13.27,0,0,1-.94,1.06,23,23,0,0,0-2.27,3.08,22.48,22.48,0,0,0-3.39,12v.15l-.35,0a19.51,19.51,0,0,0-2.19-6.48,20.14,20.14,0,0,0-3.33-4.5,20.61,20.61,0,0,0-2.88-2.45c-.74-.51-1.17-.76-1.15-.79a1.21,1.21,0,0,1,.32.16c.21.12.53.27.9.52a18.18,18.18,0,0,1,3,2.39,19.76,19.76,0,0,1,5.69,11.1l-.35,0v-.15a22,22,0,0,1,3.53-12.11,20.23,20.23,0,0,1,2.38-3c.31-.34.58-.57.75-.73A2.5,2.5,0,0,1,109.8,58.31Z" style="fill:#263238"></path></g><g id="freepik--Sun--inject-469"><circle cx="412.69" cy="68.3" r="28.85" transform="translate(235.55 447.24) rotate(-74.34)" style="fill:#736BD3"></circle><g style="opacity:0.9"><circle cx="412.69" cy="68.3" r="28.85" transform="translate(235.55 447.24) rotate(-74.34)" style="fill:#fff"></circle></g><circle cx="412.69" cy="68.3" r="25.73" style="fill:#736BD3"></circle><g style="opacity:0.6000000000000001"><circle cx="412.69" cy="68.3" r="25.73" style="fill:#fff"></circle></g><circle cx="412.69" cy="68.3" r="21.41" transform="translate(310.03 473.81) rotate(-85.19)" style="fill:#736BD3"></circle><g style="opacity:0.30000000000000004"><circle cx="412.69" cy="68.3" r="21.41" transform="translate(310.03 473.81) rotate(-85.19)" style="fill:#fff"></circle></g><circle cx="412.69" cy="68.3" r="17.14" transform="translate(294.68 469.61) rotate(-83.01)" style="fill:#736BD3"></circle></g><g id="freepik--Character--inject-469"><path d="M272.67,112.72a11.59,11.59,0,0,0,1.13-23,12.05,12.05,0,0,0-13.7-18.32,14.43,14.43,0,0,0-23.4-8.09,16.22,16.22,0,0,0-19.77,2.89,11.53,11.53,0,0,0-6.83,21" style="fill:#263238"></path><path d="M216.35,77.86l2.51-.42a49.17,49.17,0,0,1,55.73,36.61c5.77,23.13,11.84,48.75,13.77,61.34,4,26.09-21.39,34.45-21.39,34.45l7.38,30.91-19.37,24-44.14-15.47L186.49,136.73C179.69,110.09,189.53,83.92,216.35,77.86Z" style="fill:#ffbf9d"></path><path d="M267,209.84s-16.25,3.67-35.55-4.42c0,0,11.48,17.42,37.07,10.78Z" style="fill:#ff9a6c"></path><path d="M270.11,102.53s-9.56-15.17-18.05-17.68c-10.28-3-12.65,8.1-22.14,7.06s-19.3-4-27.41,4.59c-8.88,9.36-3.23,14-1.95,25.61,5.21,47.25-1.16,61.91-7.24,40.25-.66-2.37-7.69-3.18-10.37-13.23-3.48-13-6.65-29-5.25-38.9,1.18-8.33,4.79-14.55,11.89-21.93,11.21-11.63,28.73-14.74,40.86-15.51S267.82,81.93,270.11,102.53Z" style="fill:#263238"></path><path d="M194.86,161.38a7.16,7.16,0,0,0-8.75-5.55c-4.78,1.27-9.73,4.92-7.75,14.9,3.52,17.7,20.56,10.52,20.49,10C198.81,180.39,196.4,168.77,194.86,161.38Z" style="fill:#ffbf9d"></path><path d="M193.68,174.84c-.09,0-.26.28-.74.62a3.15,3.15,0,0,1-2.29.51c-2-.32-4.17-3-4.89-6.15a10.31,10.31,0,0,1,0-4.59,3.65,3.65,0,0,1,1.85-2.82,1.58,1.58,0,0,1,2,.48c.34.45.3.82.39.84s.33-.38,0-1.08a2,2,0,0,0-.92-1,2.37,2.37,0,0,0-1.79-.11,4.4,4.4,0,0,0-2.68,3.38,10.62,10.62,0,0,0-.09,5.15c.82,3.54,3.31,6.52,6,6.75a3.32,3.32,0,0,0,2.72-1C193.73,175.28,193.75,174.86,193.68,174.84Z" style="fill:#ff9a6c"></path><path d="M189.51,126.84c2.57,1.19,5.28,2.42,8.11,2.23s5.75-2.31,5.77-5.15c0-1.27-.54-2.66.12-3.75.78-1.3,2.63-1.24,4.15-1.33,5.27-.31,10.37-7,10.85-12.27a4.71,4.71,0,0,0,6.42.25,16.68,16.68,0,0,0,3.66-4.52c1.27-2,3.2-4,5.61-4.06,1.34,0,2.7.54,4,.21,2.3-.6,3-3.52,3-5.9s-.2-5.13,1.57-6.72,4.13-1.19,6.33-1.23,4.9-1,5.1-3.2a4.26,4.26,0,0,0-1.33-3.09,11.68,11.68,0,0,0-14.33-2.12,15.83,15.83,0,0,0-29.2,1.72,16.07,16.07,0,0,0-24.39,10,11.65,11.65,0,0,0-10.2,18.86c-2.89,2.36-5.11,6-4.56,9.68s4.74,6.77,8.13,5.22a6.45,6.45,0,0,0,12.06,4.52" style="fill:#263238"></path><path d="M240.7,81.21s0,.11.05.33.06.54.05,1a11.36,11.36,0,0,1-.73,3.64A12.84,12.84,0,0,1,236.82,91a12,12,0,0,1-6.95,3.29l.24-.45a6.57,6.57,0,0,1,.46,5,19,19,0,0,1-2.33,4.88,13.2,13.2,0,0,1-1.65,2.37,6.27,6.27,0,0,1-2.65,1.51,6.61,6.61,0,0,1-6.07-1.1l.64-.3a13.55,13.55,0,0,1-4.14,10.17,9.86,9.86,0,0,1-5.52,2.88,17.94,17.94,0,0,1-6-.31l.44-.29a14.18,14.18,0,0,1-3.31,6.19,7.57,7.57,0,0,1-5.92,2.72,9.94,9.94,0,0,1-8.81-6.43l.43.12a9.26,9.26,0,0,1-6,1.91,10.12,10.12,0,0,1-4.58-1.19,8.82,8.82,0,0,1-2.35-1.85,4.2,4.2,0,0,1-.6-.84,11,11,0,0,0,3.09,2.42,10,10,0,0,0,4.45,1,8.88,8.88,0,0,0,5.61-1.91l.3-.24.14.37a9.36,9.36,0,0,0,8.32,5.92,6.84,6.84,0,0,0,5.36-2.52,13.55,13.55,0,0,0,3.09-5.87l.09-.35.36.06a17.32,17.32,0,0,0,5.7.29,9.09,9.09,0,0,0,5.11-2.67,12.82,12.82,0,0,0,3.91-9.59l0-.86.67.56a5.83,5.83,0,0,0,5.35,1,5.57,5.57,0,0,0,2.35-1.32,13.14,13.14,0,0,0,1.57-2.22,18.26,18.26,0,0,0,2.28-4.69,5.91,5.91,0,0,0-.35-4.51l-.21-.4.45,0a11.61,11.61,0,0,0,6.67-3A12.9,12.9,0,0,0,239.76,86,13.92,13.92,0,0,0,240.7,81.21Z" style="fill:#455a64"></path><path d="M269.85,143.33a3.77,3.77,0,0,1-3,4.31,3.61,3.61,0,0,1-4.35-2.76,3.77,3.77,0,0,1,3-4.31A3.62,3.62,0,0,1,269.85,143.33Z" style="fill:#263238"></path><path d="M273.4,127c-.39.56-3.52-1.09-7.52-.46s-6.62,3.08-7.13,2.66c-.25-.19.09-1.14,1.22-2.26a10.27,10.27,0,0,1,5.61-2.73,10,10,0,0,1,6.09,1C273,126,273.59,126.77,273.4,127Z" style="fill:#263238"></path><path d="M238.91,169.57c.66-.17,1.94,3.14,5.37,5.29s7,2,7.13,2.67c.06.3-.81.8-2.41.9a10.32,10.32,0,0,1-6-1.62,10,10,0,0,1-3.95-4.73C238.48,170.61,238.6,169.63,238.91,169.57Z" style="fill:#263238"></path><path d="M235.93,147.66a3.76,3.76,0,0,1-3,4.31,3.59,3.59,0,0,1-4.35-2.76,3.76,3.76,0,0,1,3-4.31A3.6,3.6,0,0,1,235.93,147.66Z" style="fill:#263238"></path><path d="M234.33,134c-.38.56-3.52-1.09-7.52-.46s-6.62,3.08-7.13,2.66c-.24-.19.08-1.13,1.22-2.26a10.31,10.31,0,0,1,5.62-2.73,9.94,9.94,0,0,1,6.08,1C234,133,234.53,133.76,234.33,134Z" style="fill:#263238"></path><path d="M253.44,162.53c-.06-.23,2.36-1,6.31-2.18,1-.26,1.94-.62,2-1.34s-.48-1.81-1.15-2.92l-4.23-7.31c-5.9-10.43-10.35-19.06-9.93-19.3s5.56,8,11.46,18.45c1.43,2.58,2.8,5,4.11,7.38.56,1.1,1.43,2.31,1.14,3.93a2.6,2.6,0,0,1-1.44,1.75,7.25,7.25,0,0,1-1.7.51C256,162.34,253.49,162.75,253.44,162.53Z" style="fill:#263238"></path><path d="M234,118.31c-.19,1.15-4.26,1.38-8.82,2.81s-8.1,3.41-8.9,2.55c-.36-.41.1-1.55,1.43-2.88a16.12,16.12,0,0,1,13.5-4.09C233.07,117.07,234.09,117.76,234,118.31Z" style="fill:#263238"></path><path d="M268.52,113.75c-.6,1-3.69.59-7.22,1.14s-6.4,1.72-7.25.89c-.38-.41-.06-1.4,1.1-2.48a11.14,11.14,0,0,1,11.65-1.63C268.2,112.39,268.77,113.25,268.52,113.75Z" style="fill:#263238"></path><path d="M166.26,244.74l39.63-18.4s9.54,17.15,37.55,13.11c20.73-3,26-19.44,26-19.44l45.1,6,30.42,114.58-2.83,48.94,2.83,89.64H172.05c-1.94-3.66-.61-5.88,2.52-9.35L178,433.29,152.21,301.78Z" style="fill:#455a64"></path><g style="opacity:0.30000000000000004"><path d="M178.51,445.68c10.71-4.22,17.25-15,21.77-25.59a150.44,150.44,0,0,0,11.73-49c.19-2.85.27-5.87-1.08-8.39-2.13-4-7.12-5.51-11.64-5.78s-9.21.26-13.49-1.26l-9,71.26Z"></path></g><g style="opacity:0.30000000000000004"><path d="M231.3,407.49a90.36,90.36,0,0,0,110.23,22.8l1-28.07-65.28,18.89Z"></path></g><path d="M208.91,333.45s-2.06-1.2,3.76-10,18.83-16.68,19.26-16.94,13.95-2.61,13.95-2.61,30.93,1.91,31.19,1.91l14.08,6.65,11,8s7.62,12.62,7.78,13-3.34,10.09-3.34,10.09-14.29,9-14.72,8.9-25.5-2.05-25.5-2.05l-28.16.51-20.71-7.27Z" style="fill:#ebebeb"></path><path d="M209.14,329.31s-8.91,25.95,1.31,48.23,29.09,30.68,51.33,30.68c13.63,0,33.6-2.37,43-22.29s10-40.76,5-52.88c0,0-3.14,14.87-21,11.2s-23.59-8.12-23.59-8.12-15.46,12.32-33.29,7.34-21.49-14.16-21.49-14.16l-1.12-.61Z" style="fill:#736BD3"></path><g style="opacity:0.2"><path d="M304.1,347.62a155.21,155.21,0,0,1-2,35.92C307.34,373.54,306.56,358.63,304.1,347.62Z"></path></g><g style="opacity:0.2"><path d="M223,381.15a155.5,155.5,0,0,1-6.73-35.33C213.58,356.78,217.94,371.06,223,381.15Z"></path></g><g style="opacity:0.2"><path d="M289.23,355.87a155.28,155.28,0,0,1-6.31,35.41C289.32,382,290.34,367.09,289.23,355.87Z"></path></g><g style="opacity:0.2"><path d="M238.34,371.68a25.06,25.06,0,0,0-1.22,9.35,13.39,13.39,0,0,0,4.21,8.31A64.91,64.91,0,0,1,238.34,371.68Z"></path></g><g style="opacity:0.2"><path d="M297,352.44a24.92,24.92,0,0,1,2.29,9.14,13.37,13.37,0,0,1-3.21,8.75A65.48,65.48,0,0,0,297,352.44Z"></path></g><g style="opacity:0.2"><path d="M243.37,350.51a35.19,35.19,0,0,0-1.2,10.64,16.47,16.47,0,0,0,3.74,9.41A91,91,0,0,1,243.37,350.51Z"></path></g><g style="opacity:0.2"><path d="M265.94,368.16a35.17,35.17,0,0,0-1.21,10.64,16.6,16.6,0,0,0,3.74,9.42A90.45,90.45,0,0,1,265.94,368.16Z"></path></g><g style="opacity:0.2"><path d="M227.38,359.65a19.45,19.45,0,0,0-1,7.36,10.57,10.57,0,0,0,3.32,6.56A51.38,51.38,0,0,1,227.38,359.65Z"></path></g><path d="M236.58,311.19c.63,0,20.79,3.39,20.79,3.39l17.43-5.82-14.49-2.19H243.93Z" style="opacity:0.30000000000000004"></path><path d="M265.17,336.13l-7.8-21.55,17.43-5.82,16.35,3.68,11,8,7.78,13s-3.27,13.06-17.56,11.31S265.17,336.13,265.17,336.13Z" style="fill:#e0e0e0"></path><path d="M214.13,321.43l22.45-10.24,7.35-4.62-12-.08S219,314.16,214.13,321.43Z" style="fill:#e0e0e0"></path><g style="opacity:0.2"><path d="M304.81,385.88c1-2.06,1.86-4.14,2.65-6.22a135.72,135.72,0,0,1-13.19,15c-.28-2.71-.57-5.41-.85-8.11A27.13,27.13,0,0,1,271.37,404c-9.79,1.09-23.75-3.65-25.31-12.1a17.92,17.92,0,0,0-2.36,6.76,130.61,130.61,0,0,1-12.63-19.51c-.86,5.29-1.41,10.17-.4,15.12-16.37-15.57-23.59-40.1-18.35-62.07a16.06,16.06,0,0,1-1.33-1.87L209.22,329l-.08.25s-8.91,25.95,1.31,48.23,29.09,30.68,51.33,30.68C275.41,408.16,295.38,405.8,304.81,385.88Z"></path></g><path d="M265.23,336.13a3,3,0,0,1-.48.4c-.33.24-.79.63-1.45,1.05a40,40,0,0,1-5.75,3.2,43.56,43.56,0,0,1-9.28,3,37.74,37.74,0,0,1-5.72.79,35.06,35.06,0,0,1-6.21-.13,38.39,38.39,0,0,1-11.52-3.2,40.12,40.12,0,0,1-8.35-5.06,40.66,40.66,0,0,1-4.83-4.47c-.53-.57-.9-1.05-1.16-1.36a2.39,2.39,0,0,1-.37-.5,4.17,4.17,0,0,1,.45.43c.29.29.67.75,1.23,1.29a44.88,44.88,0,0,0,4.91,4.32,42.3,42.3,0,0,0,8.32,4.92A38.8,38.8,0,0,0,236.4,344a34,34,0,0,0,6.12.14,38.65,38.65,0,0,0,5.66-.75,45.73,45.73,0,0,0,15-5.93c.67-.4,1.15-.76,1.5-1A2.51,2.51,0,0,1,265.23,336.13Z" style="fill:#263238"></path><path d="M264,333.59a14.86,14.86,0,0,1-1.25-2.61c-.7-1.64-1.59-3.94-2.49-6.51s-1.6-4.94-2.07-6.66a14.06,14.06,0,0,1-.63-2.82,16.71,16.71,0,0,1,1,2.72c.56,1.69,1.33,4,2.22,6.59s1.73,4.87,2.33,6.54A17.35,17.35,0,0,1,264,333.59Z" style="fill:#263238"></path><path d="M257.37,314.58a20.36,20.36,0,0,1-3.05-.39L247,313l-7.32-1.16a19.05,19.05,0,0,1-3-.6,17.48,17.48,0,0,1,3.07.24c1.89.21,4.49.56,7.36,1s5.44.92,7.3,1.31A16.66,16.66,0,0,1,257.37,314.58Z" style="fill:#263238"></path><path d="M309.11,335.71a2.4,2.4,0,0,1-.17.44,10.52,10.52,0,0,1-.61,1.19,15.06,15.06,0,0,1-3.16,3.77,15.81,15.81,0,0,1-6.44,3.42,21.09,21.09,0,0,1-8.93.08,120.25,120.25,0,0,1-15.58-4.36c-2-.68-3.53-1.25-4.61-1.66l-1.24-.48c-.28-.12-.43-.19-.42-.21a13.55,13.55,0,0,1,1.72.5l4.66,1.5a142.88,142.88,0,0,0,15.56,4.2,21.12,21.12,0,0,0,8.72,0,16,16,0,0,0,6.32-3.24A18.83,18.83,0,0,0,309.11,335.71Z" style="fill:#263238"></path><path d="M227.47,315.26a26.55,26.55,0,0,1-4.6,2.6A26.74,26.74,0,0,1,218,320a27.54,27.54,0,0,1,4.6-2.6A26.92,26.92,0,0,1,227.47,315.26Z" style="fill:#263238"></path><path d="M284.28,310.92a14.09,14.09,0,0,1-4.7-.42,14.26,14.26,0,0,1-4.48-1.45,44.34,44.34,0,0,1,4.59.94A43.6,43.6,0,0,1,284.28,310.92Z" style="fill:#263238"></path><path d="M255.62,379.74a12,12,0,0,1-1.08-2.52,50,50,0,0,1-1.82-6.37,51.79,51.79,0,0,1-1-6.55,12.4,12.4,0,0,1,0-2.74,16.37,16.37,0,0,1,.42,2.7c.23,1.67.58,4,1.13,6.48s1.17,4.75,1.66,6.37A17.11,17.11,0,0,1,255.62,379.74Z" style="fill:#263238"></path><path d="M251.33,357.42c-.14,0-.26-.33-.26-.74s.12-.74.26-.74.26.33.26.74S251.48,357.42,251.33,357.42Z" style="fill:#263238"></path><path d="M293.81,386.35c-.15-.06.88-2.4,1.47-5.46s.54-5.61.7-5.61a17.9,17.9,0,0,1-2.17,11.07Z" style="fill:#263238"></path><path d="M297.29,371.15c.12.08,0,.4,0,.77s-.15.69-.29.71-.33-.35-.22-.83S297.18,371.06,297.29,371.15Z" style="fill:#263238"></path><path d="M285.52,274l.91-2.44a2.41,2.41,0,0,0-1.29-3h0a2.41,2.41,0,0,0-3.18,1.27l-1.26,3Z" style="fill:#e0e0e0"></path><path d="M275.77,292.66c0,.29-9.44,18.89-9.44,18.89l-3.52,1.14,11.08-21.92Z" style="fill:#ae7461"></path><path d="M281.07,271.74l3.06,1.21,1.57.54L307,300.81a7.78,7.78,0,0,1-2.38.36c-.52-.17-.6.09-1.55.23s-1.25-1-2.31-.76-1.86.65-2.48-.24-2-.43-3.2-.25-1.75-.58-2.88-1.63-2.74,1-4.76-.53c-1.46-1.12-1.34-1.6-4-1.36-2,.19-2.17-.65-3.24-2.08s-2.17-.65-4.11-.6a1.88,1.88,0,0,1-1-.25,2.16,2.16,0,0,1-2.18-.55c-1.32-1.42-1.53-2.76-3.29-2.53s-2.5.68-3.75-.88c-1.66-2.07-1.93-1.65-3.75-1.91-2.52-.37-2.14-3-3.68-3.06s-2.47.05-3.18-.93-1.35-2.3-2.41-2.13-1.36-.65-1.9-1.61-1.58-.35-2.14-1.13-.44-1-.92-1.27a8.23,8.23,0,0,1-1.4-2Z" style="fill:#736BD3"></path><path d="M284.82,273.19c.12-.08,4.29,6.17,9.32,14s9,14.17,8.88,14.25-4.29-6.17-9.32-14S284.7,273.27,284.82,273.19Z" style="fill:#263238"></path><path d="M284.13,273c.13-.05,2.43,6,5.13,13.43S294,299.94,293.9,300s-2.43-6-5.13-13.43S284,273,284.13,273Z" style="fill:#263238"></path><path d="M283.82,272.83c.14,0-.09,5.34-.51,11.9s-.89,11.88-1,11.87.08-5.34.51-11.9S283.67,272.82,283.82,272.83Z" style="fill:#263238"></path><path d="M282.77,272.42c.12.07-2.44,4.24-5.73,9.29s-6,9.09-6.16,9,2.44-4.24,5.73-9.29S282.65,272.34,282.77,272.42Z" style="fill:#263238"></path><path d="M282.18,272.18c.09.12-4.61,3.62-10.49,7.81s-10.72,7.5-10.8,7.38,4.61-3.61,10.49-7.81S282.1,272.07,282.18,272.18Z" style="fill:#263238"></path><path d="M253.8,282c-.05-.14,6.16-2.48,13.88-5.24s14-4.89,14.06-4.75-6.17,2.48-13.89,5.24S253.84,282.13,253.8,282Z" style="fill:#263238"></path><path d="M281.07,271.74c0,.15-7.2,1.83-16.15,3.78s-16.24,3.4-16.27,3.26,7.2-1.83,16.16-3.77S281,271.6,281.07,271.74Z" style="fill:#263238"></path><path d="M198.91,264.91l26.73,2.64a2.84,2.84,0,0,1,2.23,1.51c3,5.75,14.88,28.51,23,44.14l-4.94-.87L225,273a2.84,2.84,0,0,0-2.14-1.48l-24.48-2.27Z" style="fill:#736BD3"></path><path d="M199,264.72s.23.2.42.64a3.46,3.46,0,0,1,.26,1.85,3.53,3.53,0,0,1-.75,1.72c-.31.37-.57.53-.59.51s.19-.23.45-.61a4,4,0,0,0,.65-1.65,4,4,0,0,0-.18-1.76A5.72,5.72,0,0,1,199,264.72Z" style="fill:#263238"></path><path d="M225.47,268.57a9.78,9.78,0,0,1-.77,1.68,9.32,9.32,0,0,1-.89,1.63,5.87,5.87,0,0,1,.67-1.74A5.79,5.79,0,0,1,225.47,268.57Z" style="fill:#263238"></path><path d="M227.08,268.33a9.63,9.63,0,0,1-1.24,1.86,10,10,0,0,1-1.44,1.72,11.09,11.09,0,0,1,1.25-1.86A10.84,10.84,0,0,1,227.08,268.33Z" style="fill:#263238"></path><path d="M227.69,270.4a7.2,7.2,0,0,1-1.49,1.17,8.06,8.06,0,0,1-1.62,1,7,7,0,0,1,1.48-1.17A7.69,7.69,0,0,1,227.69,270.4Z" style="fill:#263238"></path><path d="M279.47,349a5.82,5.82,0,0,1,.23,1.38,37,37,0,0,1,.21,3.81,42.4,42.4,0,0,1-.31,5.66c-.06.53-.14,1.07-.22,1.62a4.31,4.31,0,0,1-.56,1.7,1.9,1.9,0,0,1-1.73.91,2.15,2.15,0,0,1-1.5-1.28,10,10,0,0,1-1.11-6.15l.48.05a1.54,1.54,0,0,1-.73,1.21,2.3,2.3,0,0,1-1.25.37,2.22,2.22,0,0,1-1.21-.32,2.69,2.69,0,0,1-.81-.84,5.8,5.8,0,0,1-.56-3.66,16.11,16.11,0,0,0,.13-2.37c0-.55-.1-.84-.06-.85a1.94,1.94,0,0,1,.22.83,12.51,12.51,0,0,1,0,2.41,5.67,5.67,0,0,0,.6,3.42,1.86,1.86,0,0,0,1.67.92c.69,0,1.48-.43,1.5-1.14l.49,0a9.65,9.65,0,0,0,1.08,5.83c.28.51.65,1,1.12,1a1.37,1.37,0,0,0,1.23-.67,3.75,3.75,0,0,0,.5-1.5c.09-.54.17-1.08.24-1.6a54.54,54.54,0,0,0,.42-5.6c0-1.6,0-2.9-.05-3.79A9.9,9.9,0,0,1,279.47,349Z" style="fill:#fff"></path><path d="M234.9,351.54a3.19,3.19,0,0,1,.28,1.58,3,3,0,0,1-.47,1.74,2,2,0,0,1-2,.94,2.53,2.53,0,0,1-1.7-1.47,3.77,3.77,0,0,1-.25-1.77,3.44,3.44,0,0,1,.36-1.56,8.57,8.57,0,0,1,0,1.56,3.71,3.71,0,0,0,.32,1.57,2.13,2.13,0,0,0,1.37,1.16,1.52,1.52,0,0,0,1.53-.7,3,3,0,0,0,.51-1.49A9.79,9.79,0,0,1,234.9,351.54Z" style="fill:#fff"></path><path d="M279,378.24a2.8,2.8,0,0,1,.19,1.35,3.82,3.82,0,0,1-.28,1.5,2.38,2.38,0,0,1-1.38,1.35,1.69,1.69,0,0,1-1.91-.38,2.17,2.17,0,0,1-.48-1.51c.05-.87.27-1.35.33-1.34a9,9,0,0,1,0,1.33,1.91,1.91,0,0,0,.46,1.19,1.23,1.23,0,0,0,1.38.22,2.66,2.66,0,0,0,1.48-2.38A4.69,4.69,0,0,1,279,378.24Z" style="fill:#fff"></path><path d="M299.26,361.8c.38.76,4.35,7,5.87,12.12s.57,12.5,0,16.48-4.17,5.69-4.55,8.53-1.32,11.74-1.32,11.74L286.19,427s-21-5.11-23.87-5.49S235.8,409.16,234.1,408.4s-8.72,1.89-9.86-.19-8.9-19.51-9.28-21.6,4.17-1.89,6.82,1.52,6.82,11.55,6.82,11.55l3.6-.56s-4-20.08-2.65-22.92,6.63-3.22,6.63-3.22,1.7-5.12,5.3-5.31,7.39,5.12,8.91,15.16S254,395.71,254,395.71l6.46,7.76s-8.54-29.74-6.83-34.09,7.95-.57,8.71,3,6.06,18.94,6.06,18.94,3.79,9.28,7,9.47,16.67-9.47,17.62-16.29-2.28-13.64.19-19.32S299.26,361.8,299.26,361.8Z" style="fill:#ffbf9d"></path><path d="M292.1,401.25s18.59-10,30.42-19.48L336,370.69l-3.82-61.86-18.75-82.49s39.37,8.34,48.47,41.12,11.41,34.41,15.43,56.83c2.83,15.75,5.85,58,1.07,70.25s-17.54,18.54-26.19,19.91S286,427,286,427l-6.46-13.72Z" style="fill:#ffbf9d"></path><path d="M237.72,410a5.24,5.24,0,0,1-1.48-1.19,15.22,15.22,0,0,1-2.67-3.72,15,15,0,0,1-1.44-4.36,4.87,4.87,0,0,1-.09-1.89,28.92,28.92,0,0,0,2,6A29.68,29.68,0,0,0,237.72,410Z" style="fill:#ff9a6c"></path><path d="M253.09,410.6a1.76,1.76,0,0,1-.43-.13c-.26-.11-.67-.24-1.16-.49a19,19,0,0,1-3.9-2.5,28.05,28.05,0,0,1-8.4-12.63,56.69,56.69,0,0,1-2.57-15c-.11-1.95-.15-3.53-.17-4.62a9.38,9.38,0,0,1,0-1.7,12.47,12.47,0,0,1,.17,1.69c.09,1.17.2,2.73.34,4.6a61.48,61.48,0,0,0,2.69,14.89,28.84,28.84,0,0,0,8.14,12.52A27.52,27.52,0,0,0,253.09,410.6Z" style="fill:#ff9a6c"></path><path d="M358.64,369.86c0,.09-1.23-.61-3.29-1.36a21.68,21.68,0,0,0-3.71-1,22.68,22.68,0,0,0-4.69-.31,22.42,22.42,0,0,0-4.64.73,23,23,0,0,0-3.6,1.32c-2,.94-3.11,1.75-3.16,1.66a3.46,3.46,0,0,1,.74-.61,17.34,17.34,0,0,1,2.25-1.38,20.08,20.08,0,0,1,3.65-1.45,21.23,21.23,0,0,1,4.74-.79,21.51,21.51,0,0,1,4.79.35,20.68,20.68,0,0,1,3.76,1.12,17.37,17.37,0,0,1,2.37,1.17A3.31,3.31,0,0,1,358.64,369.86Z" style="fill:#ff9a6c"></path><path d="M312.91,225.72s47.13,4.43,55.93,43.72c9.72,43.43,11.25,54.7,11.25,54.7l-51,2.7Z" style="fill:#455a64"></path><path d="M300.5,411.29a21.73,21.73,0,0,1,.86-2.59,45.82,45.82,0,0,0,1.63-6.32,45.11,45.11,0,0,0,.67-6.5,19.39,19.39,0,0,1,.1-2.72,10.89,10.89,0,0,1,.26,2.72,32.79,32.79,0,0,1-.52,6.59,33.56,33.56,0,0,1-1.8,6.36A10.71,10.71,0,0,1,300.5,411.29Z" style="fill:#ff9a6c"></path><path d="M327.52,272.42c.15,0,1.41,11.65,2.82,26.06s2.44,26.1,2.3,26.12-1.41-11.66-2.82-26.07S327.38,272.43,327.52,272.42Z" style="fill:#263238"></path><path d="M166.47,245.35s-38.25,19.76-40.4,61.84,2.23,50.05,3.25,66.31c.86,13.65,1.78,68.78,23.1,68.9,25.68.14,37.76-18.68,42.49-35.74,1.73-6.23-14.59-20-23.84-39.78-.2-.42-2.28-35-2.28-35Z" style="fill:#ffbf9d"></path><path d="M135.28,400.84s8.2-11.72,22.59-16.64l27.47-39.4s18.4,17.81,18,18.87c0,0-5.19,42.34-14.32,55s-28.2,22.15-28.2,22.15S133.18,426.11,135.28,400.84Z" style="fill:#ffbf9d"></path><path d="M185.79,343.8c.15-.44,11.44-26.31,17-38.11,1.53-3.29,2.07-2.65,2.46-3.51,1.48-3.29,28.33-4,31.93-3.08s15.15,7.2,15.15,7.2l1.7,2.84s6.41,1.17,6.82,2.75a7.41,7.41,0,0,1-.76,5.74,8.1,8.1,0,0,1-6.39,4.6c-4.73.57-15.2.74-15.2.74l-13.6,4.54s20.8-4.92,21.37-.57-.38,5.31-5.12,6.45S221,338.12,221,338.12s-8.71,17.62-11.93,21.22a21.55,21.55,0,0,1-6.54,5.07l-19.88-13.77Z" style="fill:#ffbf9d"></path><path d="M237.13,299.1a2.27,2.27,0,0,1-.4-.05c-.25-.05-.65,0-1.15-.07-1,0-2.53,0-4.47,0-3.88.1-9.49.33-16.42.79a42.86,42.86,0,0,0-5.38.58,8.36,8.36,0,0,0-4.87,2.87,9.77,9.77,0,0,0-1.54,2.62l-1.3,2.94L198.88,315c-3.72,8.4-7.82,17.62-12.11,27.3l-.74,1.66v0l-27.1,39.28-.06.08h-.1a21.11,21.11,0,0,0-10.5,3.53,22.34,22.34,0,0,0-6.06,5.9,21.78,21.78,0,0,0-2.5,4.77c-.22.58-.34,1-.44,1.34a2.64,2.64,0,0,1-.17.46,3.43,3.43,0,0,1,.11-.47c.09-.31.19-.77.39-1.36a20.58,20.58,0,0,1,2.43-4.87,22.39,22.39,0,0,1,6.07-6,21.25,21.25,0,0,1,10.66-3.65l-.16.08,27-39.34,0,0,.74-1.66c4.31-9.68,8.42-18.89,12.15-27.28l2.74-6.13,1.31-2.93a10.11,10.11,0,0,1,1.62-2.72,8.76,8.76,0,0,1,5.11-3,21.16,21.16,0,0,1,2.79-.37l2.66-.18c6.93-.42,12.55-.59,16.44-.64,1.94,0,3.45,0,4.47.07a9.7,9.7,0,0,1,1.16.12A2.54,2.54,0,0,1,237.13,299.1Z" style="fill:#ff9a6c"></path><path d="M203.39,363.48a.81.81,0,0,1,0,.25l-.07.7c-.06.62-.15,1.54-.3,2.71-.28,2.35-.77,5.74-1.48,9.91s-1.66,9.12-2.94,14.57a156.31,156.31,0,0,1-5,17.5,70.17,70.17,0,0,1-8.29,16.2A42.54,42.54,0,0,1,174.91,436a27.4,27.4,0,0,1-9.09,4.19l-.81.22-.72.12-1.14.17-.71.1-.24,0a.64.64,0,0,1,.24-.07l.69-.15,1.13-.23.71-.14.8-.24a28,28,0,0,0,8.93-4.3,43.1,43.1,0,0,0,10.18-10.61,71.11,71.11,0,0,0,8.19-16.11,161.78,161.78,0,0,0,5.07-17.43c1.3-5.43,2.27-10.37,3-14.52s1.29-7.54,1.64-9.88c.17-1.13.3-2,.4-2.69,0-.28.08-.51.11-.7A.81.81,0,0,1,203.39,363.48Z" style="fill:#ff9a6c"></path><path d="M120.51,347.62h50.35l1.44-105.25s-41,9.29-48.28,54.23Z" style="fill:#455a64"></path><path d="M160.27,292.56a5.61,5.61,0,0,1,.14.66l.32,1.88c.27,1.7.65,4.06,1.11,6.94.94,5.86,2.32,13.93,3.88,22.85s2.89,17,3.74,22.89c.42,2.94.75,5.32.94,7l.23,1.9a3.28,3.28,0,0,1,0,.66,2.77,2.77,0,0,1-.15-.65l-.32-1.88c-.27-1.7-.65-4.06-1.11-6.94-.94-5.86-2.32-13.94-3.88-22.86s-2.89-17-3.73-22.89c-.42-2.93-.75-5.31-.95-7-.09-.78-.16-1.41-.22-1.9A2.61,2.61,0,0,1,160.27,292.56Z" style="fill:#263238"></path><path d="M222,315.24a8,8,0,0,1,1.46-.52c.95-.31,2.35-.69,4.09-1.08a56.68,56.68,0,0,1,27.67.75c1.72.49,3.1.94,4,1.31a9.8,9.8,0,0,1,1.43.59,8.09,8.09,0,0,1-1.5-.4c-.94-.31-2.33-.7-4.05-1.14A61.63,61.63,0,0,0,227.6,314c-1.74.34-3.14.66-4.11.91A10.1,10.1,0,0,1,222,315.24Z" style="fill:#ff9a6c"></path><path d="M219.86,305.63a6.57,6.57,0,0,1,1.33-.22c.86-.11,2.1-.21,3.64-.28a72.8,72.8,0,0,1,12.06.44A73.64,73.64,0,0,1,248.7,308c1.48.44,2.66.84,3.47,1.15a6.93,6.93,0,0,1,1.23.52,5.81,5.81,0,0,1-1.3-.33c-.82-.25-2-.59-3.5-1a85.06,85.06,0,0,0-23.75-2.88c-1.54,0-2.78.08-3.64.13A7.43,7.43,0,0,1,219.86,305.63Z" style="fill:#ff9a6c"></path></g></svg>
